<svg id="Layer_1" data-name="Layer 1" xmlns="http://www.w3.org/2000/svg" viewBox="0 0 30.15 29.76"><defs><style>.cls-1{fill:#fff;}</style></defs><title>DYNsearch</title><path class="cls-1" d="M15.08,0A15,15,0,0,0,0,14.88H0A15,15,0,0,0,15.08,29.76,15,15,0,0,0,30.15,14.88h0A15,15,0,0,0,15.08,0ZM11,21.35a6.47,6.47,0,1,1,4.59-11.07l-1.34,1.14A4.83,4.83,0,0,0,11,10.16a4.72,4.72,0,1,0,0,9.44,4,4,0,0,0,4-3.38h-4.1V14.49H17v.67A5.89,5.89,0,0,1,11,21.35Zm14.72-5.2H23.2v2.48H21.6V16.15H19.08V14.56H21.6V12.08h1.6v2.48h2.51Z"/></svg>