<svg id="Layer_1" data-name="Layer 1" xmlns="http://www.w3.org/2000/svg" viewBox="0 0 29.85 29.47"><defs><style>.cls-1{fill:#fff;}</style></defs><title>DYNsearch</title><path class="cls-1" d="M14.93,12a2.7,2.7,0,1,0,2.72,2.69A2.71,2.71,0,0,0,14.93,12Z"/><path class="cls-1" d="M14.93,0A14.83,14.83,0,0,0,0,14.73H0A14.83,14.83,0,0,0,14.93,29.47,14.83,14.83,0,0,0,29.85,14.73h0A14.83,14.83,0,0,0,14.93,0Zm8.13,18.07a6,6,0,0,1-.38,2,4,4,0,0,1-.94,1.43,4.08,4.08,0,0,1-1.45.93,5.87,5.87,0,0,1-2,.37c-.87,0-1.15,0-3.37,0s-2.5,0-3.38,0a5.81,5.81,0,0,1-2-.37,4,4,0,0,1-1.45-.93A3.93,3.93,0,0,1,7.17,20a6,6,0,0,1-.38-2c0-.87,0-1.14,0-3.34s0-2.46,0-3.33a6,6,0,0,1,.38-2A3.93,3.93,0,0,1,8.12,8a4,4,0,0,1,1.45-.93,6,6,0,0,1,2-.38c.88,0,1.15,0,3.38,0s2.5,0,3.37,0a6.1,6.1,0,0,1,2,.38A4.08,4.08,0,0,1,21.74,8a4,4,0,0,1,.94,1.43,6,6,0,0,1,.38,2c0,.87.05,1.14.05,3.33S23.1,17.2,23.06,18.07Z"/><path class="cls-1" d="M21.31,10A2.45,2.45,0,0,0,20.69,9a2.37,2.37,0,0,0-.94-.6,4.37,4.37,0,0,0-1.52-.28c-.86,0-1.12-.05-3.3-.05s-2.45,0-3.31.05a4.43,4.43,0,0,0-1.52.28,2.52,2.52,0,0,0-.94.6,2.43,2.43,0,0,0-.61.93,4.22,4.22,0,0,0-.29,1.5c0,.85,0,1.11,0,3.26s0,2.42,0,3.27a4.28,4.28,0,0,0,.29,1.5,2.43,2.43,0,0,0,.61.93,2.52,2.52,0,0,0,.94.6,4.69,4.69,0,0,0,1.52.28c.86,0,1.12.05,3.31.05s2.44,0,3.3-.05A4.63,4.63,0,0,0,19.75,21a2.37,2.37,0,0,0,.94-.6,2.45,2.45,0,0,0,.62-.93,4.6,4.6,0,0,0,.28-1.5c0-.85.05-1.11.05-3.27s0-2.41-.05-3.26A4.54,4.54,0,0,0,21.31,10Zm-6.38,8.91a4.15,4.15,0,1,1,4.2-4.15A4.18,4.18,0,0,1,14.93,18.88Zm4.37-7.49a1,1,0,1,1,1-1A1,1,0,0,1,19.3,11.39Z"/></svg>