<svg id="Layer_1" data-name="Layer 1" xmlns="http://www.w3.org/2000/svg" viewBox="0 0 30.15 29.76"><defs><style>.cls-1{fill:#fff;}</style></defs><title>DYNsearch</title><path class="cls-1" d="M15.08,0A15,15,0,0,0,0,14.88H0A15,15,0,0,0,15.08,29.76,15,15,0,0,0,30.15,14.88h0A15,15,0,0,0,15.08,0Zm1.38,18.82a3,3,0,0,1-2.52-1.27s-.59,2.34-.72,2.79a10.62,10.62,0,0,1-1.86,3.33.13.13,0,0,1-.24-.06,11.3,11.3,0,0,1,0-3.86l1.32-5.53a4,4,0,0,1-.32-1.61c0-1.5.88-2.63,2-2.63a1.38,1.38,0,0,1,1.39,1.53,21.53,21.53,0,0,1-.91,3.6,1.57,1.57,0,0,0,1.62,1.95c1.95,0,3.26-2.47,3.26-5.39,0-2.23-1.52-3.89-4.28-3.89a4.83,4.83,0,0,0-5.06,4.86,2.88,2.88,0,0,0,.68,2,.49.49,0,0,1,.15.57c-.05.18-.17.63-.21.81a.35.35,0,0,1-.52.25c-1.44-.57-2.1-2.13-2.1-3.87C8.15,9.5,10.61,6,15.5,6,19.42,6,22,8.85,22,11.86,22,15.84,19.76,18.82,16.46,18.82Z"/></svg>