<svg id="Layer_1" data-name="Layer 1" xmlns="http://www.w3.org/2000/svg" viewBox="0 0 29.85 29.47"><defs><style>.cls-1{fill:#fff;}</style></defs><title>DYNsearch</title><path class="cls-1" d="M14.93,0A14.83,14.83,0,0,0,0,14.73H0A14.83,14.83,0,0,0,14.93,29.47,14.83,14.83,0,0,0,29.85,14.73h0A14.83,14.83,0,0,0,14.93,0ZM11.25,21.3H8.16V11.45h3.09ZM9.69,10.16a1.82,1.82,0,1,1,1.82-1.82A1.82,1.82,0,0,1,9.69,10.16ZM22.82,21.3H19.75V16.13c0-1.42-.55-2.21-1.68-2.21s-1.88.83-1.88,2.21V21.3h-3V11.45h3v1.33a3.48,3.48,0,0,1,3-1.63c2.12,0,3.63,1.27,3.63,3.91Z"/></svg>