<svg xmlns="http://www.w3.org/2000/svg" xmlns:xlink="http://www.w3.org/1999/xlink" viewBox="0 0 53.99 53.99"><defs><style>.cls-1{fill:#fff;}.cls-2{fill:url(#linear-gradient);}</style><linearGradient id="linear-gradient" y1="26.99" x2="53.99" y2="26.99" gradientUnits="userSpaceOnUse"><stop offset="0" stop-color="#2e3191"/><stop offset="0.15" stop-color="#2a3a92"/><stop offset="0.4" stop-color="#215494"/><stop offset="0.71" stop-color="#117d98"/><stop offset="0.99" stop-color="#00a89c"/></linearGradient></defs><title>iscrap</title><g id="Layer_3" data-name="Layer 3"><circle class="cls-1" cx="26.84" cy="26.99" r="26.48"/><path class="cls-2" d="M31.75.43A27,27,0,1,0,53.56,31.75,27,27,0,0,0,31.75.43Zm2.8,2.05a25.52,25.52,0,0,1,14.7,11.7h0c0,.05,0,.09.07.13s0-.08-.07-.13c0,.33-.07.72-.11,1.17s-.08.94-.13,1.42a17.18,17.18,0,0,0-7.31-1.34c-1.24-1.66-6.11-5.93-8-6.71A30.46,30.46,0,0,0,32.72,3,10.53,10.53,0,0,0,34.55,2.48Zm2.91,23c1.08,1.78,3.58,6.28,3.71,9.93a53.89,53.89,0,0,1-6.9,8.08,18.72,18.72,0,0,1-5.67-.23,27.81,27.81,0,0,1-4.22-1.11c-.56-.19-1-.36-1.25-.46l-.09,0a55.16,55.16,0,0,1-3.48-9.54A21.25,21.25,0,0,1,24,26.17c.71-.7,1.46-1.41,2.25-2.08l.72-.61c1,.17,2.08.29,3.17.43,1.78.23,3.62.47,5.69.84l1.36.26ZM14.08,4.93A25.49,25.49,0,0,1,29.52,1.48h0c.83.48,1.63,1,2.43,1.33a30,30,0,0,1,1,5.9c-2.44.45-7.36,3-8.71,3.89a20.55,20.55,0,0,0-5.72-1.87,12.81,12.81,0,0,0-4.32-.17A20.68,20.68,0,0,1,14.08,4.93Zm.1,6.35a11.33,11.33,0,0,1,4.24.14l0-.14h0l0,.14h0A19.38,19.38,0,0,1,24,13.24c.18.76.36,1.54.53,2.3.57,2.5,1.15,5.08,1.88,7.51-1.49,1.22-5.7,4.87-7.4,8.66L14.75,31l-2.68-.47-1.76-.32a21.5,21.5,0,0,1-2.52-6.59c-.28-1.23-.46-2.31-.56-3-.06-.42-.1-.75-.12-.94A58.73,58.73,0,0,1,14.18,11.28ZM5.08,39.89h0A25.48,25.48,0,0,1,2.91,18.68a19.09,19.09,0,0,0,3.53,1.13c.17,1.52,1,7,3.2,10.57-1.08,1.72-2.71,4.85-2.45,7.78-.75.56-1.45,1.15-2.11,1.73v0ZM19.57,51.35h0A25.45,25.45,0,0,1,5.44,40.49c.63-.57,1.31-1.13,2-1.68,1.28,2,5.56,6.48,7.77,7.28a16.4,16.4,0,0,0,4.34,5.25l.11,0Zm12.84.57a25.48,25.48,0,0,1-9.82.16c-.42-.08-.85-.16-1.26-.26A17,17,0,0,1,16,46.12a18.91,18.91,0,0,0,6.88-3.78A29.87,29.87,0,0,0,28.49,44a19.92,19.92,0,0,0,5.64.26c.85,2.35,1.8,3.85,2.91,4.56a25.15,25.15,0,0,1-3.86,2.73Zm2.43-.64a23.69,23.69,0,0,0,3-2.28,15.7,15.7,0,0,0,4.59-1.62A25.61,25.61,0,0,1,34.84,51.28Zm7.61-15.94a4.67,4.67,0,0,1-.6-.13c-.23-4-3-8.84-4.06-10.49a20.58,20.58,0,0,0,4.05-8.61,20.82,20.82,0,0,1,3.65.3,12.72,12.72,0,0,1,3.59,1.16,26.16,26.16,0,0,1,3.15,9.1c0,.08,0,.19,0,.31-.24,1.34-1.24,5.89-4.12,8.9A50.62,50.62,0,0,1,42.45,35.34Zm9.8-3.92a25.42,25.42,0,0,1-5.52,11.86,15.43,15.43,0,0,0,1.88-7,18,18,0,0,0,4-8.07A25,25,0,0,1,52.25,31.42Z"/></g></svg>