<svg id="Layer_1" data-name="Layer 1" xmlns="http://www.w3.org/2000/svg" viewBox="0 0 29.91 29.91"><defs><style>.cls-1{fill:#fff;}</style></defs><title>DYNsearch</title><path class="cls-1" d="M15,0a15,15,0,1,0,15,15A15,15,0,0,0,15,0Zm.56,24.75a2,2,0,0,1-2.82,0,1.92,1.92,0,0,1-.58-1.41A1.85,1.85,0,0,1,12.71,22a2,2,0,0,1,2.81,0,1.83,1.83,0,0,1,.59,1.39A1.85,1.85,0,0,1,15.52,24.75Zm5-13.31h0a9.26,9.26,0,0,1-2.81,3.25,8.26,8.26,0,0,0-2,2.58A3.94,3.94,0,0,0,15.28,19H12.44a6.59,6.59,0,0,1,.71-2.89,10.72,10.72,0,0,1,3.28-3.89A7.38,7.38,0,0,0,18,10.22a2.29,2.29,0,0,0,.23-1,2.34,2.34,0,0,0-.12-.74,2.29,2.29,0,0,0-2.95-1.4,2.18,2.18,0,0,0-1.32,1.15,2.61,2.61,0,0,0-.18.78l-2.88.92V9a4.16,4.16,0,0,1,.5-2,4.94,4.94,0,0,1,2.94-2.6,5.18,5.18,0,0,1,1.74-.3,5,5,0,0,1,2.22.52,4.91,4.91,0,0,1,2.63,2.88,5.47,5.47,0,0,1,.29,1.7A5.09,5.09,0,0,1,20.52,11.44Z"/></svg>