<svg xmlns="http://www.w3.org/2000/svg" xmlns:xlink="http://www.w3.org/1999/xlink" viewBox="0 0 482.46 609.88"><defs><style>.cls-1{fill:url(#linear-gradient);}.cls-2{fill:#fff;}.cls-3{fill:url(#linear-gradient-2);}.cls-4{fill:url(#linear-gradient-3);}.cls-5{fill:url(#linear-gradient-4);}.cls-6{fill:url(#linear-gradient-5);}.cls-7{fill:url(#linear-gradient-6);}.cls-8{fill:url(#linear-gradient-7);}.cls-9{fill:url(#linear-gradient-8);}.cls-10{fill:url(#linear-gradient-9);}.cls-11{fill:url(#linear-gradient-10);}</style><linearGradient id="linear-gradient" x1="26.2" y1="218.85" x2="438.1" y2="218.85" gradientUnits="userSpaceOnUse"><stop offset="0" stop-color="#2e3191"/><stop offset="0.15" stop-color="#2a3a92"/><stop offset="0.4" stop-color="#215494"/><stop offset="0.71" stop-color="#117d98"/><stop offset="0.99" stop-color="#00a89c"/></linearGradient><linearGradient id="linear-gradient-2" x1="205.41" y1="120.75" x2="259.4" y2="120.75" xlink:href="#linear-gradient"/><linearGradient id="linear-gradient-3" x1="0" y1="526.05" x2="14.27" y2="526.05" xlink:href="#linear-gradient"/><linearGradient id="linear-gradient-4" x1="26.16" y1="526.13" x2="83.38" y2="526.13" xlink:href="#linear-gradient"/><linearGradient id="linear-gradient-5" x1="92.45" y1="544.04" x2="149.67" y2="544.04" xlink:href="#linear-gradient"/><linearGradient id="linear-gradient-6" x1="160.08" y1="544.04" x2="203.77" y2="544.04" xlink:href="#linear-gradient"/><linearGradient id="linear-gradient-7" x1="206.01" y1="544.04" x2="271.11" y2="544.04" xlink:href="#linear-gradient"/><linearGradient id="linear-gradient-8" x1="283.59" y1="560.76" x2="348.54" y2="560.76" xlink:href="#linear-gradient"/><linearGradient id="linear-gradient-9" x1="360.73" y1="542.7" x2="425.83" y2="542.7" xlink:href="#linear-gradient"/><linearGradient id="linear-gradient-10" x1="438.76" y1="544.04" x2="482.46" y2="544.04" xlink:href="#linear-gradient"/></defs><title>iscrap</title><g id="Layer_3" data-name="Layer 3"><path class="cls-1" d="M232.15,12.9A205,205,0,0,0,119.93,46.14a6.22,6.22,0,0,0-5.25,3.54,206,206,0,0,0-65.1,264.54v0a6.21,6.21,0,0,0,2.87,5.23,206.06,206.06,0,0,0,278,80.36,5.62,5.62,0,0,0,.92.08,6.2,6.2,0,0,0,5.76-3.89,205.84,205.84,0,0,0,101-177.2C438.1,105.1,345.9,12.9,232.15,12.9ZM423.52,161.55a199.1,199.1,0,0,1,8.26,51.23l-9,5.05a6.17,6.17,0,0,0-3.78-1.29,6.69,6.69,0,0,0-1.28.13l-26.46-66.79a6.32,6.32,0,0,0,2.27-2l29.28,13.86A.69.69,0,0,0,423.52,161.55ZM86.59,200l19.14,43.33a6.28,6.28,0,0,0-1,1.88L68.17,234.84a6.14,6.14,0,0,0-1.51-3.36ZM64.14,229.76a6.28,6.28,0,0,0-1.17-.31l-2.32-38,23.54,6.7Zm-2.66-106.9,31.83-22.54a7.23,7.23,0,0,0,1.9,1.11l-10.1,87.68L60.79,134.06a7.25,7.25,0,0,0,.69-11.2Zm43.68-28.68,50.32-11.45a7.28,7.28,0,0,0,6.45,3.9,4.71,4.71,0,0,0,.53,0l7.08,77.64a9.75,9.75,0,0,0-1.61.9l-63.74-66.8a7.24,7.24,0,0,0,1-3.66C105.18,94.51,105.17,94.35,105.16,94.18Zm138-34.52-74.26,16.9,45.51-27,28.36,7.55h0A8.55,8.55,0,0,0,243.12,59.66Zm-73.93,20,75.44-17.16A8.58,8.58,0,0,0,248,64.94l-8.77,32.28a25,25,0,0,0-6.46-.84,25.23,25.23,0,0,0-22.29,13.39l-42-27.23A7.2,7.2,0,0,0,169.19,79.61ZM382.27,145l-55.08,35.12-.34-.32,43-60.34a8.39,8.39,0,0,0,5.82-.51L384.05,140a6.18,6.18,0,0,0-1.82,4.38A4.21,4.21,0,0,0,382.27,145Zm-58.06,33.26a7.25,7.25,0,0,0-6.91,1.33l-66-40.83a25.13,25.13,0,0,0,6-11.39l107-12.8a8.43,8.43,0,0,0,2.81,3.54ZM332,278.66l-75.69,27V260.49l16.21-20.27A9.86,9.86,0,0,0,284,238L332,273a7.21,7.21,0,0,0-.61,2.9A7.09,7.09,0,0,0,332,278.66ZM207.67,323a7.69,7.69,0,0,0-.49-1.09l1.11-1.39v2.26Zm.62,3v1.14l-.37-.12a7.36,7.36,0,0,0,.15-.94ZM159.42,233.5l-43.64,10.44a6.19,6.19,0,0,0-5.24-2.88,6.13,6.13,0,0,0-2.28.44l-19-42.92,70.22,33.47a7.49,7.49,0,0,0-.1,1.17C159.41,233.31,159.42,233.4,159.42,233.5ZM91.49,196.25l73.72-17.68a9.91,9.91,0,0,0,5.75,4.27L166,226a7.28,7.28,0,0,0-5.37,3.23ZM174,183.19a9.91,9.91,0,0,0,7.68-4.15l26.62,15.36v36.94l-34.59-.07a7.29,7.29,0,0,0-4.68-4.94ZM315.42,182a7.13,7.13,0,0,0-.27,5.71L282.25,223a9.91,9.91,0,0,0-5.5-1.67,10.12,10.12,0,0,0-2.08.22l-19.9-44.21a25.24,25.24,0,0,0-1.28-2.85l-13-28.87A25,25,0,0,0,249,140.9Zm-43.6,40.7a10,10,0,0,0-3.27,3l-12.29-7.1V188.11Zm-39.09-75.81a25.69,25.69,0,0,0,4.76-.45l9,20a23.85,23.85,0,0,0-14.2-4.69h0a24.05,24.05,0,0,0-24,24v5.21l-25.24-14.57a10,10,0,0,0,.47-3,9.9,9.9,0,0,0-1.72-5.58l35.66-26A25.11,25.11,0,0,0,232.73,146.86Zm23.53,75.24,11,6.34a9.83,9.83,0,0,0-.41,2.83v.18l-10.57,0Zm11.11,12.4a9.88,9.88,0,0,0,2.58,4L256.26,255.6V234.48Zm18.36,1a9.89,9.89,0,0,0-1.24-10.4l32.36-34.76a7.21,7.21,0,0,0,3.6,1.94l15,77.06a7.27,7.27,0,0,0-1.7,1.15ZM242.09,98.18,251,65.57h.25a8.47,8.47,0,0,0,8.45-7.91l60-8.22a7.63,7.63,0,0,0,.58,1.14l-65.84,58.06A25.36,25.36,0,0,0,242.09,98.18Zm-32.92,14.4a25.21,25.21,0,0,0,5.92,27.09l-35.4,25.8a9.82,9.82,0,0,0-6.09-2.11c-.37,0-.72,0-1.07.06l-7.09-77.7a7.86,7.86,0,0,0,1.14-.77Zm-43.44,54.67a9.77,9.77,0,0,0-1.74,8.48L90.82,193.28a1.5,1.5,0,0,0-.81-1.51,1.37,1.37,0,0,0-1.86.08l-.35.56,10.42-90.47a7.23,7.23,0,0,0,3.91-1.34Zm-98,70.64,36.65,10.42a6.23,6.23,0,0,0,4.38,4.93l8.57,64.45a6.28,6.28,0,0,0-.59.27L66.85,239.48A6.29,6.29,0,0,0,67.77,237.89Zm44.12,15.45a6.22,6.22,0,0,0,4.87-6.06c0-.15,0-.29,0-.43l43.44-10.4a7.14,7.14,0,0,0,1.88,2.38l-40.14,78.84a5.94,5.94,0,0,0-1.52-.38Zm52.88-13.11a7.12,7.12,0,0,0,1.92.26,7.31,7.31,0,0,0,1.33-.12l28.92,78.91a7.31,7.31,0,0,0-3,3.77l-68.09-.14a6.14,6.14,0,0,0-1.43-3.45Zm6.07-1a7.22,7.22,0,0,0,3-4.87l34.42.07v81.22l-3.17,4a7.2,7.2,0,0,0-4.3-1.42,8.42,8.42,0,0,0-1,.08Zm35.8,90.61,1.65.54v11l-3.59-9.79A7.32,7.32,0,0,0,206.64,329.8Zm25.64,58.12h0a24.06,24.06,0,0,0,24-24V346.1l53.32,17.52c0,.22,0,.45,0,.67a10,10,0,0,0,.48,3.06L229.71,396a6.29,6.29,0,0,0-2.48-2.91l-2.31-6.31A23.58,23.58,0,0,0,232.28,387.92Zm24-45v-34l77.52-27.64a7.46,7.46,0,0,0,1.83,1.21l-16.18,71.91a9.92,9.92,0,0,0-9.17,6.26Zm67.29-150.65a7.32,7.32,0,0,0,4.47-3.06l84.77,33.56h0a5.32,5.32,0,0,0,.06.81l-70.44,46.07a7.12,7.12,0,0,0-3.75-1.05h-.23Zm5.58-5.9a6.78,6.78,0,0,0,.11-1.2,7.21,7.21,0,0,0-.44-2.47l54.55-34.78a6.19,6.19,0,0,0,4.89,2.66L415,218a6,6,0,0,0-1.43,1.74Zm93.38-28.07-27.89-13.21c0-.24,0-.47,0-.72a6.05,6.05,0,0,0-.46-2.33L413,134A196.9,196.9,0,0,1,422.51,158.27ZM407,122.21q2.47,4.47,4.72,9.06l-19.36,8.22a6.18,6.18,0,0,0-3.88-1.36,6.33,6.33,0,0,0-1.75.25l-8.44-21.32a8.52,8.52,0,0,0,1.82-3l17.43,2.26c0,.2,0,.4,0,.6a6.23,6.23,0,0,0,6.22,6.22A6.1,6.1,0,0,0,407,122.21Zm-6.34-10.67a6.19,6.19,0,0,0-2,1.87l-18-2.34a8.44,8.44,0,0,0-.26-1.89L394.87,103Q397.86,107.2,400.63,111.54ZM393,100.47l-14,5.94a8.54,8.54,0,0,0-.9-1.09l6.66-15.25Q389.09,95.14,393,100.47Zm-10.4-13a.24.24,0,0,0-.06.08l-6.95,15.94a8.43,8.43,0,0,0-3-.74l-15.87-40A200,200,0,0,1,382.62,87.52ZM335.76,48.06a198.13,198.13,0,0,1,18.29,12.58l-.56.22a.74.74,0,0,0-.41.94l16.4,41.39-.21.08-38-49.47A8.5,8.5,0,0,0,335.76,48.06Zm-8.27,6.64.61,0,38.5,50.14a8.47,8.47,0,0,0-3,6.44,2.83,2.83,0,0,0,0,.29L257.84,124.19a24.17,24.17,0,0,0,.13-2.57,25.09,25.09,0,0,0-2.14-10.18l66.42-58.56A8.41,8.41,0,0,0,327.49,54.7Zm-6-14.5a8.52,8.52,0,0,0-2.29,4.1L266.86,35c0-.18,0-.35,0-.53a6.44,6.44,0,0,0-.23-1.65l16.71-7.09A198.09,198.09,0,0,1,321.53,40.2ZM262.66,22.45a3.14,3.14,0,0,0,.13-1c5.3.81,10.52,1.85,15.67,3.07l-13.32,5.66a6.19,6.19,0,0,0-4.07-1.88Zm3.18,15.49,50.32,8.91-56.85,7.79a8.55,8.55,0,0,0-4-5l2.61-9.62a6.18,6.18,0,0,0,8-2.11ZM259.4,22.83,257.72,29a6.19,6.19,0,0,0-2.36,8.67l-3,11a7.59,7.59,0,0,0-1.17-.09,8.48,8.48,0,0,0-7.91,5.46L218,47.38l41.19-24.44Zm-27.25-3.71a201.2,201.2,0,0,1,24.94,1.55L213.91,46.29,164.85,33.23a6.16,6.16,0,0,0-.9-2.16A199.38,199.38,0,0,1,232.15,19.12ZM164.7,36.35l45.54,12.11L167,74.13a7.39,7.39,0,0,0-2.76-1.68l-2.95-32.27A6.19,6.19,0,0,0,164.7,36.35Zm-12-.77a6.21,6.21,0,0,0,5.62,5.11l2.87,31.43a7.23,7.23,0,0,0-4.79,2.56L125.93,54.94a6.26,6.26,0,0,0,.58-2.6,6.19,6.19,0,0,0-.6-2.64A201,201,0,0,1,152.65,35.58Zm-36.92,21a6.19,6.19,0,0,0,8.26.77l30.93,20.07a7.42,7.42,0,0,0-.27,2c0,.15,0,.29,0,.44L104.32,91.25a7.26,7.26,0,0,0-9.78-3l-6.82-7.15s-.07,0-.1-.08A200.85,200.85,0,0,1,115.73,56.55ZM85.55,83.22l6.64,7a7.27,7.27,0,0,0-1.55,4.18L72.82,98.42C76.81,93.14,81.07,88.07,85.55,83.22ZM70.36,101.74a8.21,8.21,0,0,0,2.48-.2l18.31-4.17c.08.19.16.38.25.56L58.56,121.19q-.29-.09-.57-.15A200.13,200.13,0,0,1,70.36,101.74ZM58,135.3,84.37,195l-23.91-6.8-3.22-52.77A6.32,6.32,0,0,0,58,135.3Zm1.82,92.63L41,190.28a9.9,9.9,0,0,0,5.93-2.79l10.65,3Zm-8.27-94.45a7.06,7.06,0,0,0,2.62,1.57l3.18,52.24-8.56-2.43a9.8,9.8,0,0,0,1.07-4.45,9.93,9.93,0,0,0-9.93-9.92,9.69,9.69,0,0,0-1.63.15A197.7,197.7,0,0,1,51.55,133.48Zm-18,106.36a202.51,202.51,0,0,1,1.15-51A10.08,10.08,0,0,0,37.4,190l20.51,40.92a6.18,6.18,0,0,0-2.11,4.57l-22.16,4.28A.21.21,0,0,0,33.52,239.84Zm.31,2.67c.13.18.27.28.39.25l22.28-4.3a6.24,6.24,0,0,0,3.5,3l-7.47,64.79A198.12,198.12,0,0,1,33.83,242.51Zm21.56,65.56L63,241.71a6.25,6.25,0,0,0,1.36-.39L114.49,320a6.15,6.15,0,0,0-1,3.42,2.11,2.11,0,0,0,0,.25L62,315a5.65,5.65,0,0,0,0-.71,6.21,6.21,0,0,0-6.22-6.22Zm4.09,11.19a6.36,6.36,0,0,0,1.36-1.38L114.57,327a6.4,6.4,0,0,0,1.75,1.69l-17.8,35c-.79,1.54-.82,3.12-.07,3.5s2-.58,2.78-2.12l18-35.37.44,0a6.26,6.26,0,0,0,1.57-.21l22.1,68.32A200.67,200.67,0,0,1,59.48,319.26Zm105.35,87.67q-9.08-3.26-17.72-7.33a1.23,1.23,0,0,0,0-.19L124,328a6.31,6.31,0,0,0,1.41-2l68.21.15a7.25,7.25,0,0,0,3.2,5.38l-26.36,70A6.2,6.2,0,0,0,164.83,406.93Zm29.1,8q-8.9-1.74-17.52-4.23a6.13,6.13,0,0,0,.8-3,6.23,6.23,0,0,0-3.72-5.69l26.13-69.35a6.78,6.78,0,0,0,1.2.11,6.9,6.9,0,0,0,1-.08l6.45,17.6v13.7a24.06,24.06,0,0,0,12.78,21.19l2.58,7a6.22,6.22,0,0,0-5.45,8.53l-24.06,13.57C194,414.34,193.9,414.59,193.93,414.91Zm38.22,3.66a200.63,200.63,0,0,1-34.27-2.94L220,403.14a6.23,6.23,0,0,0,7.17.51l39.75,11.9A201.41,201.41,0,0,1,232.15,418.57Zm93-24.84a6,6,0,0,0,.26,1.76,198.59,198.59,0,0,1-52,18.81l-43.9-13.14a6,6,0,0,0,.63-2.1l81.3-29a9.89,9.89,0,0,0,8,4.13,10,10,0,0,0,3.25-.56l4.86,15.16A6.2,6.2,0,0,0,325.17,393.73Zm10.77-4.21a6.17,6.17,0,0,0-4.56-2,6.62,6.62,0,0,0-1,.09l-4.93-15.4a10,10,0,0,0,2.79-3.28L351,379.4Q343.7,384.79,335.94,389.52Zm17.78-12.21L329.24,366a9.89,9.89,0,0,0,.14-1.45l50-10.75A201.65,201.65,0,0,1,353.72,377.31ZM382.82,350,329,361.53a10,10,0,0,0-6.54-6.7l16.13-71.7h.07a7.26,7.26,0,0,0,5.8-2.88l55.25,33.16a8.1,8.1,0,0,0-.06.86,6.22,6.22,0,0,0,4.59,6A200.75,200.75,0,0,1,382.82,350Zm27.25-40.26a6.2,6.2,0,0,0-9.19.86l-55.13-33.09a7.18,7.18,0,0,0-1.06-5.69L414,226.44a6.2,6.2,0,0,0,4.73,2.52l9.11,28.45a.43.43,0,0,0,.24.26A198.09,198.09,0,0,1,410.07,309.7Zm19.12-58.1-7.45-23.27.26-.13,9.4,4.31C431,239,430.22,245.33,429.19,251.6Zm-4.85-25.68a6.21,6.21,0,0,0,.88-3.17,6.32,6.32,0,0,0-.53-2.5l7.16-4c0,.87,0,1.74,0,2.62q0,5.24-.27,10.4Z"/><circle class="cls-2" cx="232.25" cy="120.75" r="26.48"/><path class="cls-3" d="M237.16,94.18A27,27,0,1,0,259,125.5,27,27,0,0,0,237.16,94.18Zm2.8,2a25.47,25.47,0,0,1,14.7,11.71h0l.07.13-.07-.12c0,.32-.06.72-.1,1.16s-.09.94-.13,1.43a17.19,17.19,0,0,0-7.32-1.35c-1.23-1.66-6.11-5.93-8-6.71a31.35,31.35,0,0,0-1-5.76A10.3,10.3,0,0,0,240,96.23Zm2.91,23c1.08,1.78,3.58,6.28,3.71,9.93a53.32,53.32,0,0,1-6.9,8.08A18.66,18.66,0,0,1,234,137a28,28,0,0,1-4.23-1.11c-.55-.19-1-.35-1.24-.46l-.1,0a55.09,55.09,0,0,1-3.47-9.54,21.37,21.37,0,0,1,4.4-6c.71-.7,1.46-1.41,2.25-2.08.33-.28.58-.49.73-.6,1,.16,2.07.28,3.16.42,1.78.23,3.62.47,5.69.84l1.37.26ZM219.49,98.68a25.51,25.51,0,0,1,15.44-3.45h0c.84.49,1.63,1,2.43,1.33a30,30,0,0,1,1,5.9c-2.44.45-7.36,3-8.71,3.89A20.26,20.26,0,0,0,224,104.5a12.6,12.6,0,0,0-4.32-.18A20.64,20.64,0,0,1,219.49,98.68Zm.1,6.35a11.33,11.33,0,0,1,4.24.14l0-.14h0l0,.14h0a19.27,19.27,0,0,1,5.54,1.82c.18.76.36,1.54.53,2.3.57,2.5,1.15,5.08,1.88,7.51-1.49,1.22-5.69,4.87-7.4,8.66l-4.24-.75-2.67-.47-1.76-.32a21.18,21.18,0,0,1-2.53-6.59c-.28-1.23-.46-2.31-.56-3-.06-.42-.1-.74-.12-.94A58.73,58.73,0,0,1,219.59,105Zm-9.1,28.61h0a25.48,25.48,0,0,1-2.17-21.21,19.09,19.09,0,0,0,3.53,1.13c.17,1.52,1,7,3.2,10.58-1.08,1.71-2.71,4.84-2.45,7.77-.74.56-1.45,1.15-2.11,1.73,0,0,0,0,0,0S210.49,133.65,210.49,133.64ZM225,145.1h0a25.49,25.49,0,0,1-14.12-10.86c.63-.57,1.3-1.13,2-1.68,1.27,2,5.56,6.48,7.76,7.28A16.56,16.56,0,0,0,225,145.1l.11,0Zm12.84.58a25.63,25.63,0,0,1-9.81.15c-.43-.08-.85-.16-1.27-.26a17,17,0,0,1-5.31-5.7,19,19,0,0,0,6.87-3.78,29.58,29.58,0,0,0,5.6,1.61,19.93,19.93,0,0,0,5.64.26c.85,2.35,1.8,3.85,2.91,4.56a24,24,0,0,1-3.86,2.73Zm2.44-.65a23.57,23.57,0,0,0,3-2.28,15.75,15.75,0,0,0,4.6-1.62A25.73,25.73,0,0,1,240.26,145Zm7.6-15.94a5.57,5.57,0,0,1-.6-.13c-.23-4-3-8.84-4-10.48a20.62,20.62,0,0,0,4-8.62,20.9,20.9,0,0,1,3.65.3,12.65,12.65,0,0,1,3.58,1.16,26,26,0,0,1,3.16,9.1c0,.08,0,.19-.06.32-.24,1.33-1.23,5.88-4.12,8.89A50.84,50.84,0,0,1,247.86,129.09Zm9.8-3.91A25.41,25.41,0,0,1,252.15,137a15.51,15.51,0,0,0,1.87-7,18,18,0,0,0,4-8.07A23.42,23.42,0,0,1,257.66,125.18Z"/><path class="cls-4" d="M0,492.61V478.19a13.8,13.8,0,0,1,10.11,4.16,14,14,0,0,1,4.16,10.26Zm0,35.82V514.16a13.8,13.8,0,0,1,10.11,4.16,13.8,13.8,0,0,1,4.16,10.11v31.21a13.77,13.77,0,0,1-4.16,10.11A13.76,13.76,0,0,1,0,573.91V528.43Z"/><path class="cls-5" d="M55,492.61a15.47,15.47,0,0,0-5.64,1,16.11,16.11,0,0,0-4.69,2.75,12.15,12.15,0,0,0-3.12,4.09,11.78,11.78,0,0,0-1.11,5.05,11.35,11.35,0,0,0,1.11,5,13.22,13.22,0,0,0,3.12,4.09,14.34,14.34,0,0,0,4.69,2.75,16.54,16.54,0,0,0,5.64,1v.15a27.8,27.8,0,0,1,10.78,2.38,30,30,0,0,1,8.77,5.94,27,27,0,0,1,5.94,8.7A27.37,27.37,0,0,1,80.41,557a28.43,28.43,0,0,1-26.16,16.94H26.16a14.2,14.2,0,0,1,14.27-14.27H54.25a14.41,14.41,0,0,0,5.43-1,13.91,13.91,0,0,0,7.58-7.21,13.09,13.09,0,0,0,0-10.55,13.1,13.1,0,0,0-3.05-4.24,14.86,14.86,0,0,0-10-3.86v-.15a30,30,0,0,1-10.92-2.3,28.82,28.82,0,0,1-8.92-5.8,27.41,27.41,0,0,1-6-8.55,25.54,25.54,0,0,1,.07-21,27.72,27.72,0,0,1,6.17-8.62,29.75,29.75,0,0,1,20.36-8H83.38a13.89,13.89,0,0,1-4.23,10.11,15.21,15.21,0,0,1-4.61,3A13.94,13.94,0,0,1,69,492.61Z"/><path class="cls-6" d="M124.85,573.91a33,33,0,0,1-12.56-2.38A34.65,34.65,0,0,1,102,565.14a29,29,0,0,1-7-9.44,28.16,28.16,0,0,1,0-23.33,29.08,29.08,0,0,1,7-9.44,34.65,34.65,0,0,1,10.33-6.39,33,33,0,0,1,12.56-2.38h24.82a14.2,14.2,0,0,1-14.27,14.27H124.85A20.08,20.08,0,0,0,112,533a15.39,15.39,0,0,0-3.86,4.9,13.88,13.88,0,0,0,0,12.19,16.39,16.39,0,0,0,3.86,5,17.56,17.56,0,0,0,5.8,3.34,20.73,20.73,0,0,0,7.06,1.19H135.4a14.2,14.2,0,0,1,14.27,14.27H124.85Z"/><path class="cls-7" d="M189.21,528.58a11.09,11.09,0,0,0-5.72,1.26,14.77,14.77,0,0,0-4.76,3.87,19.1,19.1,0,0,0-3.2,5.87,21.6,21.6,0,0,0-1.19,7.13v12.78a13.9,13.9,0,0,1-4.16,10.26,13.72,13.72,0,0,1-10.1,4.16v-27.2a34.53,34.53,0,0,1,2.3-12.63,34.07,34.07,0,0,1,6.24-10.41,28.5,28.5,0,0,1,9.29-7,26.4,26.4,0,0,1,11.45-2.53h14.41a14,14,0,0,1-1.11,5.57,14.71,14.71,0,0,1-7.73,7.73,13.86,13.86,0,0,1-5.57,1.12Z"/><path class="cls-8" d="M271.11,573.91a14.25,14.25,0,0,1-6.32-1.41,14.73,14.73,0,0,1-5-3.94,32.77,32.77,0,0,1-9.73,5.8,32.89,32.89,0,0,1-24.16-.45,32.53,32.53,0,0,1-10.4-7,33,33,0,0,1-7-10.34,32.54,32.54,0,0,1,0-25.11,32.75,32.75,0,0,1,17.39-17.32,32.82,32.82,0,0,1,25.27,0,31.71,31.71,0,0,1,10.33,7,34.63,34.63,0,0,1,7,10.33,30.71,30.71,0,0,1,2.6,12.56Zm-32.55-11.74a18,18,0,0,0,7.06-1.41,17.83,17.83,0,0,0,5.79-3.87,18.14,18.14,0,0,0-12.85-31,17.84,17.84,0,0,0-7.14,1.41,19.15,19.15,0,0,0-5.79,3.87,17.29,17.29,0,0,0-3.94,5.8,18.26,18.26,0,0,0,0,14.12,17.35,17.35,0,0,0,3.94,5.79,19,19,0,0,0,5.79,3.87A17.84,17.84,0,0,0,238.56,562.17Z"/><path class="cls-9" d="M316,511.63a32.09,32.09,0,0,1,12.64,2.53A32.56,32.56,0,0,1,346,531.55a32,32,0,0,1,2.52,12.63A31.49,31.49,0,0,1,346,556.74a32.86,32.86,0,0,1-7,10.33,32.45,32.45,0,0,1-23,9.52,31.28,31.28,0,0,1-9.66-1.49,32.11,32.11,0,0,1-8.47-4.16v24.67a14.2,14.2,0,0,1-14.27,14.27v-65.7a31.87,31.87,0,0,1,2.53-12.63,32.53,32.53,0,0,1,7-10.4,32.92,32.92,0,0,1,10.33-7A31.53,31.53,0,0,1,316,511.63Zm0,50.69a18,18,0,0,0,7.06-1.41,18.91,18.91,0,0,0,5.87-3.87,17.29,17.29,0,0,0,3.94-5.8,18.38,18.38,0,0,0,0-14.12,18.21,18.21,0,0,0-3.94-5.87,18.43,18.43,0,0,0-5.87-3.94,18.38,18.38,0,0,0-14.12,0,17.55,17.55,0,0,0-5.79,3.94,18.85,18.85,0,0,0-3.87,5.87A18.11,18.11,0,0,0,316,562.32Z"/><path class="cls-10" d="M411.41,559.64a14,14,0,0,1,10.26,4.16,13.8,13.8,0,0,1,4.16,10.11H393.28a32.86,32.86,0,0,1-12.63-2.45,33.57,33.57,0,0,1-10.41-6.69,31,31,0,0,1-7-9.88,30.57,30.57,0,0,1,0-24.31,30.79,30.79,0,0,1,7-10,33.21,33.21,0,0,1,10.41-6.69,32.68,32.68,0,0,1,12.63-2.46,39.15,39.15,0,0,1,14.05,2.31,34.49,34.49,0,0,1,10.18,5.87,24.42,24.42,0,0,1,6.24,7.88,19.06,19.06,0,0,1,2.08,8.32v.6a14.21,14.21,0,0,1-14.42,14.41H380.05a5.62,5.62,0,0,0,1.12,3.35,10.32,10.32,0,0,0,3,2.75,19.75,19.75,0,0,0,4.24,1.93,15.45,15.45,0,0,0,4.83.74ZM393.28,525.9A18.79,18.79,0,0,0,383,528.8a17,17,0,0,0-6.62,7.66h35.08v-.6a5.86,5.86,0,0,0-.89-2.53,10.85,10.85,0,0,0-3-3.27,21.29,21.29,0,0,0-5.64-2.89A25.1,25.1,0,0,0,393.28,525.9Z"/><path class="cls-11" d="M467.89,528.58a11.11,11.11,0,0,0-5.72,1.26,14.77,14.77,0,0,0-4.76,3.87,18.87,18.87,0,0,0-3.19,5.87,21.34,21.34,0,0,0-1.19,7.13v12.78a13.94,13.94,0,0,1-4.16,10.26,13.76,13.76,0,0,1-10.11,4.16v-27.2a34.74,34.74,0,0,1,2.3-12.63,34.29,34.29,0,0,1,6.25-10.41,28.4,28.4,0,0,1,9.29-7A26.36,26.36,0,0,1,468,514.16h14.42a13.86,13.86,0,0,1-1.12,5.57,14.71,14.71,0,0,1-7.73,7.73,13.86,13.86,0,0,1-5.57,1.12Z"/></g></svg>