<svg xmlns="http://www.w3.org/2000/svg" xmlns:xlink="http://www.w3.org/1999/xlink" viewBox="0 0 482.46 596.98"><defs><style>.cls-1{fill:url(#linear-gradient);}.cls-2{fill:#fff;}.cls-3{fill:url(#linear-gradient-2);}.cls-4{fill:#f3cd32;}</style><linearGradient id="linear-gradient" x1="26.2" y1="205.95" x2="438.1" y2="205.95" gradientUnits="userSpaceOnUse"><stop offset="0" stop-color="#f3cd32"/><stop offset="0.12" stop-color="#dbc93c"/><stop offset="0.39" stop-color="#9ebd54"/><stop offset="0.77" stop-color="#3eab7b"/><stop offset="0.99" stop-color="#00a094"/></linearGradient><linearGradient id="linear-gradient-2" x1="205.41" y1="107.85" x2="259.4" y2="107.85" gradientUnits="userSpaceOnUse"><stop offset="0" stop-color="#2e3188"/><stop offset="0.16" stop-color="#2a3a89"/><stop offset="0.42" stop-color="#1f548b"/><stop offset="0.75" stop-color="#0e7d90"/><stop offset="0.99" stop-color="#009f93"/></linearGradient></defs><title>logo</title><g id="Layer_3" data-name="Layer 3"><path class="cls-1" d="M232.15,0A205,205,0,0,0,119.93,33.25a6.21,6.21,0,0,0-5.25,3.53,206,206,0,0,0-65.1,264.54v.05a6.19,6.19,0,0,0,2.87,5.23,206.08,206.08,0,0,0,278,80.37,7,7,0,0,0,.92.07,6.2,6.2,0,0,0,5.76-3.89A205.84,205.84,0,0,0,438.1,206C438.1,92.21,345.9,0,232.15,0ZM423.52,148.66a199,199,0,0,1,8.26,51.22l-9,5.05a6.23,6.23,0,0,0-3.78-1.29,6,6,0,0,0-1.28.14L391.26,137a6.22,6.22,0,0,0,2.27-2l29.28,13.86C423,149,423.27,148.88,423.52,148.66ZM86.59,187.11l19.14,43.34a6.23,6.23,0,0,0-1,1.87L68.17,221.94a6.17,6.17,0,0,0-1.51-3.36ZM64.14,216.86a5.58,5.58,0,0,0-1.17-.3l-2.32-38.05,23.54,6.69ZM61.48,110,93.31,87.42a7.55,7.55,0,0,0,1.9,1.12l-10.1,87.67L60.79,121.16a7.25,7.25,0,0,0,.69-11.2Zm43.68-28.67,50.32-11.45a7.29,7.29,0,0,0,6.45,3.89l.53,0,7.08,77.63a9.8,9.8,0,0,0-1.61.91L104.19,85.44a7.21,7.21,0,0,0,1-3.66C105.18,81.61,105.17,81.45,105.16,81.29Zm138-34.52-74.26,16.9,45.51-27,28.36,7.55h0A8.67,8.67,0,0,0,243.12,46.77ZM169.19,66.72l75.44-17.17A8.39,8.39,0,0,0,248,52l-8.77,32.28a25.24,25.24,0,0,0-28.75,12.56l-42-27.24A7.19,7.19,0,0,0,169.19,66.72Zm213.08,65.34-55.08,35.13a3.4,3.4,0,0,0-.34-.32l43-60.35a8.39,8.39,0,0,0,5.82-.51l8.34,21a6.19,6.19,0,0,0-1.82,4.39A4.17,4.17,0,0,0,382.27,132.06Zm-58.06,33.26a7.23,7.23,0,0,0-6.91,1.34l-66-40.83a25.22,25.22,0,0,0,6-11.4l107-12.79a8.49,8.49,0,0,0,2.81,3.54ZM332,265.77l-75.69,27V247.59l16.21-20.27A9.86,9.86,0,0,0,284,225.11l48,34.94a7.23,7.23,0,0,0,0,5.72ZM207.67,310.08a8.23,8.23,0,0,0-.49-1.09l1.11-1.39v2.26Zm.62,3v1.13l-.37-.12a7.21,7.21,0,0,0,.15-.93Zm-48.87-92.5L115.78,231a6.21,6.21,0,0,0-5.24-2.87,6.13,6.13,0,0,0-2.28.44l-19-42.92,70.22,33.47a7.36,7.36,0,0,0-.1,1.16C159.41,220.42,159.42,220.51,159.42,220.6ZM91.49,183.36l73.72-17.69A9.93,9.93,0,0,0,171,170l-5,43.13a7.23,7.23,0,0,0-5.37,3.23ZM174,170.29a9.89,9.89,0,0,0,7.68-4.15l26.62,15.37v36.93l-34.59-.06a7.3,7.3,0,0,0-4.68-4.95Zm141.43-1.21a7.11,7.11,0,0,0-.27,5.7l-32.9,35.34a9.91,9.91,0,0,0-5.5-1.67,9.47,9.47,0,0,0-2.08.23l-19.9-44.22a26.07,26.07,0,0,0-1.28-2.85l-13-28.87A25.15,25.15,0,0,0,249,128Zm-43.6,40.69a10.13,10.13,0,0,0-3.27,3l-12.29-7.09V175.21ZM232.73,134a24.86,24.86,0,0,0,4.76-.46l9,20a23.79,23.79,0,0,0-14.2-4.7h0a24.06,24.06,0,0,0-24,24V178l-25.24-14.58a10,10,0,0,0,.47-3,9.9,9.9,0,0,0-1.72-5.58l35.66-26A25.11,25.11,0,0,0,232.73,134Zm23.53,75.24,11,6.33a9.85,9.85,0,0,0-.41,2.84v.18l-10.57,0Zm11.11,12.4a9.91,9.91,0,0,0,2.58,4l-13.69,17.12V221.59Zm18.36,1a9.89,9.89,0,0,0-1.24-10.4l32.36-34.76a7.21,7.21,0,0,0,3.6,1.94l15,77.06a7.63,7.63,0,0,0-1.7,1.16ZM242.09,85.28,251,52.67l.25,0a8.48,8.48,0,0,0,8.45-7.92l60-8.22a7.63,7.63,0,0,0,.58,1.14L254.39,95.75A25.41,25.41,0,0,0,242.09,85.28Zm-32.92,14.4a25.21,25.21,0,0,0,5.92,27.09l-35.4,25.8a9.87,9.87,0,0,0-6.09-2.1,9.33,9.33,0,0,0-1.07.06l-7.09-77.7a7.19,7.19,0,0,0,1.14-.78Zm-43.44,54.68a9.75,9.75,0,0,0-1.74,8.47L90.82,180.38a1.51,1.51,0,0,0-.81-1.51c-.71-.45-1.55-.41-1.86.09l-.35.55L98.22,89a7.23,7.23,0,0,0,3.91-1.34ZM67.77,225l36.65,10.42a6.21,6.21,0,0,0,4.38,4.92l8.57,64.45a6.28,6.28,0,0,0-.59.27L66.85,226.58A6.23,6.23,0,0,0,67.77,225Zm44.12,15.44a6.21,6.21,0,0,0,4.87-6.06c0-.14,0-.29,0-.43l43.44-10.39a7,7,0,0,0,1.88,2.37l-40.14,78.84a5.94,5.94,0,0,0-1.52-.38Zm52.88-13.11a7.12,7.12,0,0,0,1.92.27,7.31,7.31,0,0,0,1.33-.13l28.92,78.91a7.35,7.35,0,0,0-3,3.77L125.86,310a6.14,6.14,0,0,0-1.43-3.45Zm6.07-1a7.22,7.22,0,0,0,3-4.86l34.42.06v81.23l-3.17,3.95a7.26,7.26,0,0,0-4.3-1.41,6.77,6.77,0,0,0-1,.08Zm35.8,90.61,1.65.54v11l-3.59-9.78A7.36,7.36,0,0,0,206.64,316.9ZM232.28,375h0a24.05,24.05,0,0,0,24-24V333.2l53.32,17.52c0,.23,0,.45,0,.68a9.93,9.93,0,0,0,.48,3.05l-80.32,28.63a6.24,6.24,0,0,0-2.48-2.91l-2.31-6.32A23.58,23.58,0,0,0,232.28,375Zm24-45V296l77.52-27.64a7.46,7.46,0,0,0,1.83,1.21l-16.18,71.92a9.89,9.89,0,0,0-9.17,6.26Zm67.29-150.66a7.28,7.28,0,0,0,4.47-3.06l84.77,33.57h0a5.29,5.29,0,0,0,.06.8l-70.44,46.07a7.21,7.21,0,0,0-3.75-1.05h-.23Zm5.58-5.9a6.78,6.78,0,0,0,.11-1.2,7.25,7.25,0,0,0-.44-2.47L383.35,135a6.19,6.19,0,0,0,4.89,2.66L415,205.13a6.31,6.31,0,0,0-1.43,1.74Zm93.38-28.07-27.89-13.21c0-.23,0-.47,0-.71a6.06,6.06,0,0,0-.46-2.34l18.81-8A197.53,197.53,0,0,1,422.51,145.37ZM407,109.32q2.47,4.46,4.72,9.06l-19.36,8.22a6.19,6.19,0,0,0-3.88-1.37,6.33,6.33,0,0,0-1.75.25l-8.44-21.32a8.34,8.34,0,0,0,1.82-3l17.43,2.27c0,.19,0,.39,0,.6a6.21,6.21,0,0,0,9.49,5.27Zm-6.34-10.67a6.27,6.27,0,0,0-2,1.86l-18-2.34a8.28,8.28,0,0,0-.26-1.88l14.56-6.18Q397.86,94.3,400.63,98.65ZM393,87.58l-14,5.93a8.54,8.54,0,0,0-.9-1.09l6.66-15.25Q389.09,82.24,393,87.58Zm-10.4-13a.24.24,0,0,0-.06.08l-6.95,15.94a8.43,8.43,0,0,0-3-.74L356.74,49.85A201.39,201.39,0,0,1,382.62,74.62ZM335.76,35.16a202.14,202.14,0,0,1,18.29,12.58l-.56.23a.72.72,0,0,0-.41.93l16.4,41.39-.21.08-38-49.47A8.48,8.48,0,0,0,335.76,35.16Zm-8.27,6.64.61,0,38.5,50.14a8.48,8.48,0,0,0-3,6.44,2.64,2.64,0,0,0,0,.29L257.84,111.3a24.49,24.49,0,0,0,.13-2.58,25,25,0,0,0-2.14-10.17L322.25,40A8.41,8.41,0,0,0,327.49,41.8Zm-6-14.49a8.49,8.49,0,0,0-2.29,4.09l-52.38-9.27c0-.17,0-.35,0-.52a6.32,6.32,0,0,0-.23-1.65l16.71-7.1A198.12,198.12,0,0,1,321.53,27.31ZM262.66,9.56a3.24,3.24,0,0,0,.13-1q7.95,1.23,15.67,3.07l-13.32,5.66a6.19,6.19,0,0,0-4.07-1.88Zm3.18,15.49L316.16,34l-56.85,7.79a8.5,8.5,0,0,0-4-5l2.61-9.63a6.11,6.11,0,0,0,2.79.67A6.19,6.19,0,0,0,265.84,25.05ZM259.4,9.93l-1.68,6.21a6.2,6.2,0,0,0-2.36,8.68l-3,11a9.08,9.08,0,0,0-1.17-.09,8.48,8.48,0,0,0-7.91,5.46L218,34.49l41.19-24.44ZM232.15,6.22a201.2,201.2,0,0,1,24.94,1.55L213.91,33.39l-49.06-13a6,6,0,0,0-.9-2.16A199.38,199.38,0,0,1,232.15,6.22ZM164.7,23.45l45.54,12.12L167,61.23a7.39,7.39,0,0,0-2.76-1.68l-2.95-32.27A6.19,6.19,0,0,0,164.7,23.45Zm-12-.76a6.23,6.23,0,0,0,5.62,5.11l2.87,31.42a7.27,7.27,0,0,0-4.79,2.56L125.93,42.05a6.35,6.35,0,0,0,.58-2.61,6.11,6.11,0,0,0-.6-2.63A199.85,199.85,0,0,1,152.65,22.69Zm-36.92,21a6.24,6.24,0,0,0,4.56,2,6.16,6.16,0,0,0,3.7-1.23l30.93,20.06a7.48,7.48,0,0,0-.27,2c0,.15,0,.3,0,.44L104.32,78.35a7.26,7.26,0,0,0-9.78-3l-6.82-7.15-.1-.07A200.2,200.2,0,0,1,115.73,43.66ZM85.55,70.32l6.64,7a7.3,7.3,0,0,0-1.55,4.18L72.82,85.52C76.81,80.24,81.07,75.17,85.55,70.32ZM70.36,88.84a7.9,7.9,0,0,0,2.48-.2l18.31-4.16c.08.19.16.37.25.55L58.56,108.29c-.19-.05-.38-.11-.57-.14A199.06,199.06,0,0,1,70.36,88.84ZM58,122.4l26.37,59.68-23.91-6.8-3.22-52.76C57.5,122.49,57.75,122.45,58,122.4ZM59.82,215,41,177.39a9.92,9.92,0,0,0,5.93-2.8l10.65,3Zm-8.27-94.45a7.22,7.22,0,0,0,2.62,1.58l3.18,52.24L48.79,172a9.76,9.76,0,0,0,1.07-4.44,9.94,9.94,0,0,0-9.93-9.93,9.69,9.69,0,0,0-1.63.15A197.7,197.7,0,0,1,51.55,120.58Zm-18,106.36a202.51,202.51,0,0,1,1.15-51,10.08,10.08,0,0,0,2.73,1.18L57.91,218a6.18,6.18,0,0,0-2.11,4.58l-22.16,4.28A.2.2,0,0,0,33.52,226.94Zm.31,2.67c.13.18.27.28.39.26l22.28-4.3a6.23,6.23,0,0,0,3.5,3l-7.47,64.8A198.17,198.17,0,0,1,33.83,229.61Zm21.56,65.57L63,228.81a6.25,6.25,0,0,0,1.36-.39l50.09,78.72a6.18,6.18,0,0,0-1,3.42,2.28,2.28,0,0,0,0,.26L62,302.08a5.52,5.52,0,0,0,0-.71,6.21,6.21,0,0,0-6.22-6.21Zm4.09,11.18A6.14,6.14,0,0,0,60.84,305l53.73,9.11a6.26,6.26,0,0,0,1.75,1.69l-17.8,35c-.79,1.54-.82,3.12-.07,3.5s2-.57,2.78-2.12l18-35.37.44,0a6.25,6.25,0,0,0,1.57-.2l22.1,68.31A200.54,200.54,0,0,1,59.48,306.36ZM164.83,394q-9.08-3.24-17.72-7.33a1.1,1.1,0,0,0,0-.18L124,315.05a6.38,6.38,0,0,0,1.41-2l68.21.14a7.25,7.25,0,0,0,3.2,5.39l-26.36,70A6.21,6.21,0,0,0,164.83,394Zm29.1,8q-8.9-1.72-17.52-4.23a6.09,6.09,0,0,0,.8-3,6.2,6.2,0,0,0-3.72-5.69l26.13-69.36a6.78,6.78,0,0,0,1.2.11,6.9,6.9,0,0,0,1-.08l6.45,17.6V351a24.05,24.05,0,0,0,12.78,21.19l2.58,7a6.21,6.21,0,0,0-5.45,8.52l-24.06,13.57C194,401.44,193.9,401.69,193.93,402Zm38.22,3.67a201.65,201.65,0,0,1-34.27-2.94L220,390.25a6.2,6.2,0,0,0,7.17.5l39.75,11.9A200.42,200.42,0,0,1,232.15,405.68Zm93-24.85a6,6,0,0,0,.26,1.76,198.23,198.23,0,0,1-52,18.81l-43.9-13.14a6,6,0,0,0,.63-2.1l81.3-29a9.89,9.89,0,0,0,8,4.13,9.73,9.73,0,0,0,3.25-.56l4.86,15.16A6.22,6.22,0,0,0,325.17,380.83Zm10.77-4.21a6.17,6.17,0,0,0-4.56-2,6.61,6.61,0,0,0-1,.08l-4.93-15.4a10,10,0,0,0,2.79-3.27L351,366.5Q343.7,371.89,335.94,376.62Zm17.78-12.21-24.48-11.29a9.89,9.89,0,0,0,.14-1.45l50-10.75A201.65,201.65,0,0,1,353.72,364.41Zm29.1-27.35L329,348.63a10,10,0,0,0-6.54-6.7l16.13-71.7h.07a7.27,7.27,0,0,0,5.8-2.89l55.25,33.17a7.91,7.91,0,0,0-.06.85,6.21,6.21,0,0,0,4.59,6A200.75,200.75,0,0,1,382.82,337.06Zm27.25-40.26a6.22,6.22,0,0,0-9.19.86l-55.13-33.09a7.18,7.18,0,0,0-1.06-5.69L414,213.55a6.19,6.19,0,0,0,4.73,2.51l9.11,28.45a.43.43,0,0,0,.24.26A197.84,197.84,0,0,1,410.07,296.8Zm19.12-58.09-7.45-23.28.26-.13,9.4,4.32C431,226.07,430.22,232.44,429.19,238.71ZM424.34,213a6.2,6.2,0,0,0,.88-3.16,6.37,6.37,0,0,0-.53-2.51l7.16-4c0,.87,0,1.74,0,2.61q0,5.24-.27,10.41Z"/><circle class="cls-2" cx="232.25" cy="107.85" r="26.48"/><path class="cls-3" d="M237.16,81.28A27,27,0,1,0,259,112.6,27,27,0,0,0,237.16,81.28Zm2.8,2A25.51,25.51,0,0,1,254.66,95h0a.54.54,0,0,1,.07.13s0-.08-.07-.13c0,.33-.06.72-.1,1.16s-.09.94-.13,1.43a17.19,17.19,0,0,0-7.32-1.35c-1.23-1.66-6.11-5.93-8-6.71a31.35,31.35,0,0,0-1-5.76A9.51,9.51,0,0,0,240,83.33Zm2.91,23c1.08,1.78,3.58,6.29,3.71,9.94a53.82,53.82,0,0,1-6.9,8.08,19,19,0,0,1-5.66-.23,29.24,29.24,0,0,1-4.23-1.11c-.55-.19-1-.36-1.24-.47l-.1,0A55.7,55.7,0,0,1,225,113a21.22,21.22,0,0,1,4.4-6c.71-.71,1.46-1.41,2.25-2.08.33-.29.58-.49.73-.61,1,.16,2.07.29,3.16.43,1.78.23,3.62.47,5.69.84l1.37.25C242.67,106,242.76,106.17,242.87,106.34ZM219.49,85.78a25.58,25.58,0,0,1,15.44-3.45h0c.84.49,1.63,1,2.43,1.33a30.12,30.12,0,0,1,1,5.9c-2.44.46-7.36,3-8.71,3.9A20.26,20.26,0,0,0,224,91.6a12.82,12.82,0,0,0-4.32-.17A20.73,20.73,0,0,1,219.49,85.78Zm.1,6.35a11.77,11.77,0,0,1,4.24.14l0-.14h0l0,.14h0a19.58,19.58,0,0,1,5.54,1.82c.18.77.36,1.55.53,2.31.57,2.49,1.15,5.07,1.88,7.51-1.49,1.21-5.69,4.86-7.4,8.66-1.36-.26-2.82-.51-4.24-.76l-2.67-.47-1.76-.32a21.18,21.18,0,0,1-2.53-6.59c-.28-1.22-.46-2.3-.56-3-.06-.42-.1-.75-.12-1A59.29,59.29,0,0,1,219.59,92.13Zm-9.1,28.62h0a25.48,25.48,0,0,1-3.14-17.47,25.77,25.77,0,0,1,1-3.75,18.47,18.47,0,0,0,3.53,1.14c.17,1.51,1,7,3.2,10.57-1.08,1.71-2.71,4.85-2.45,7.77-.74.57-1.45,1.15-2.11,1.74h0ZM225,132.2h0a25.49,25.49,0,0,1-14.12-10.86c.63-.56,1.3-1.13,2-1.68,1.27,2,5.56,6.48,7.76,7.29A16.4,16.4,0,0,0,225,132.2l.11,0Zm12.84.58a25.43,25.43,0,0,1-9.81.15c-.43-.07-.85-.16-1.27-.26a16.92,16.92,0,0,1-5.31-5.7,18.66,18.66,0,0,0,6.87-3.78,28.83,28.83,0,0,0,5.6,1.61,19.57,19.57,0,0,0,5.64.26c.85,2.35,1.8,3.85,2.91,4.57a24.63,24.63,0,0,1-3.86,2.72C238.34,132.5,238.08,132.64,237.82,132.78Zm2.44-.65a21.83,21.83,0,0,0,3-2.28,15.69,15.69,0,0,0,4.6-1.61A25.7,25.7,0,0,1,240.26,132.13Zm7.6-15.94-.6-.12c-.23-4-3-8.84-4-10.49a20.57,20.57,0,0,0,4-8.62,20.9,20.9,0,0,1,3.65.3,12.65,12.65,0,0,1,3.58,1.17,26,26,0,0,1,3.16,9.09c0,.09,0,.19-.06.32-.24,1.33-1.23,5.88-4.12,8.9A53.63,53.63,0,0,1,247.86,116.19Zm9.8-3.91a25.45,25.45,0,0,1-5.51,11.86,15.55,15.55,0,0,0,1.87-7,18,18,0,0,0,4-8.07A23.42,23.42,0,0,1,257.66,112.28Z"/><path class="cls-4" d="M0,479.71V465.29a13.77,13.77,0,0,1,10.11,4.17,13.94,13.94,0,0,1,4.16,10.25Zm0,35.82V501.26a13.8,13.8,0,0,1,10.11,4.16,13.8,13.8,0,0,1,4.16,10.11v31.22a13.76,13.76,0,0,1-4.16,10.1A13.76,13.76,0,0,1,0,561V515.53Z"/><path class="cls-4" d="M55,479.71a15.47,15.47,0,0,0-5.64,1,16.33,16.33,0,0,0-4.69,2.75,12.15,12.15,0,0,0-3.12,4.09,11.78,11.78,0,0,0-1.11,5.05,11.29,11.29,0,0,0,1.11,5,13.22,13.22,0,0,0,3.12,4.09,14.16,14.16,0,0,0,4.69,2.75,16.3,16.3,0,0,0,5.64,1v.15A28,28,0,0,1,65.77,508a29.88,29.88,0,0,1,8.77,5.95,27,27,0,0,1,5.94,8.69,27.37,27.37,0,0,1-.07,21.48A28.43,28.43,0,0,1,54.25,561H26.16a14.2,14.2,0,0,1,14.27-14.26H54.25a14.6,14.6,0,0,0,5.43-1,13.91,13.91,0,0,0,7.58-7.21,13.11,13.11,0,0,0,0-10.56,13.17,13.17,0,0,0-3.05-4.23,14.78,14.78,0,0,0-4.53-2.83,14.6,14.6,0,0,0-5.43-1v-.15a29.62,29.62,0,0,1-10.92-2.3,28.64,28.64,0,0,1-8.92-5.8,27.25,27.25,0,0,1-6-8.54,25.54,25.54,0,0,1,.07-21,27.76,27.76,0,0,1,6.17-8.63A29.88,29.88,0,0,1,55,465.44H83.38a13.85,13.85,0,0,1-4.23,10.11,15.43,15.43,0,0,1-4.61,3.05A14.11,14.11,0,0,1,69,479.71Z"/><path class="cls-4" d="M124.85,561a33.22,33.22,0,0,1-12.56-2.37,34.88,34.88,0,0,1-10.33-6.4,29,29,0,0,1-7-9.43,28.18,28.18,0,0,1,0-23.34,29.19,29.19,0,0,1,7-9.44,35.06,35.06,0,0,1,10.33-6.39,33.22,33.22,0,0,1,12.56-2.38h24.82a14.2,14.2,0,0,1-14.27,14.27H124.85a19.85,19.85,0,0,0-7.06,1.27,19.5,19.5,0,0,0-5.8,3.34,15.43,15.43,0,0,0-3.86,4.91,13.86,13.86,0,0,0,0,12.18,16.15,16.15,0,0,0,3.86,5,17.76,17.76,0,0,0,5.8,3.35,21,21,0,0,0,7.06,1.19H135.4A14.2,14.2,0,0,1,149.67,561H124.85Z"/><path class="cls-4" d="M189.21,515.68a11.09,11.09,0,0,0-5.72,1.26,14.9,14.9,0,0,0-4.76,3.87,19.1,19.1,0,0,0-3.2,5.87,21.64,21.64,0,0,0-1.19,7.13V546.6a13.9,13.9,0,0,1-4.16,10.25,13.72,13.72,0,0,1-10.1,4.16v-27.2a34.61,34.61,0,0,1,2.3-12.63,34,34,0,0,1,6.24-10.4,28.53,28.53,0,0,1,9.29-7,26.54,26.54,0,0,1,11.45-2.53h14.41a14,14,0,0,1-1.11,5.58,14.42,14.42,0,0,1-3.12,4.6,14.77,14.77,0,0,1-4.61,3.13,14,14,0,0,1-5.57,1.11Z"/><path class="cls-4" d="M271.11,561a14.11,14.11,0,0,1-6.32-1.41,14.73,14.73,0,0,1-5-3.94,32.77,32.77,0,0,1-9.73,5.8,32.89,32.89,0,0,1-24.16-.45,32.53,32.53,0,0,1-10.4-7,33,33,0,0,1-7-10.33,32.56,32.56,0,0,1,0-25.12,32.75,32.75,0,0,1,17.39-17.32,32.37,32.37,0,0,1,35.6,7,34.76,34.76,0,0,1,7,10.33,30.74,30.74,0,0,1,2.6,12.56Zm-32.55-11.74a18.13,18.13,0,1,0-7.14-34.85,19.12,19.12,0,0,0-5.79,3.86,17.39,17.39,0,0,0-3.94,5.8,18.26,18.26,0,0,0,0,14.12,17.39,17.39,0,0,0,3.94,5.8,19.12,19.12,0,0,0,5.79,3.86A17.84,17.84,0,0,0,238.56,549.27Z"/><path class="cls-4" d="M316,498.74a32.09,32.09,0,0,1,12.64,2.52A32.56,32.56,0,0,1,346,518.65a32.09,32.09,0,0,1,2.52,12.64A31.52,31.52,0,0,1,346,543.85a33.09,33.09,0,0,1-7,10.33,32.53,32.53,0,0,1-10.4,7A31.92,31.92,0,0,1,316,563.69a31.28,31.28,0,0,1-9.66-1.49,31.8,31.8,0,0,1-8.47-4.16v24.68A14.2,14.2,0,0,1,283.59,597V531.29a31.92,31.92,0,0,1,2.53-12.64,32.53,32.53,0,0,1,7-10.4,33.09,33.09,0,0,1,10.33-7A31.52,31.52,0,0,1,316,498.74Zm0,50.68a18,18,0,0,0,7.06-1.41,18.74,18.74,0,0,0,5.87-3.87,17.25,17.25,0,0,0,3.94-5.79,18.3,18.3,0,0,0-23.93-23.93,17.25,17.25,0,0,0-5.79,3.94,18.74,18.74,0,0,0-3.87,5.87A18.11,18.11,0,0,0,316,549.42Z"/><path class="cls-4" d="M411.41,546.75a13.94,13.94,0,0,1,10.26,4.16,13.76,13.76,0,0,1,4.16,10.1H393.28a32.67,32.67,0,0,1-12.63-2.45,33.21,33.21,0,0,1-10.41-6.69,30.94,30.94,0,0,1-7-9.88,30.55,30.55,0,0,1,0-24.3,30.73,30.73,0,0,1,7-10A33.39,33.39,0,0,1,380.65,501a32.67,32.67,0,0,1,12.63-2.45,39.38,39.38,0,0,1,14.05,2.3,34.49,34.49,0,0,1,10.18,5.87,24.53,24.53,0,0,1,6.24,7.88,19.1,19.1,0,0,1,2.08,8.32v.6A14.22,14.22,0,0,1,411.41,538H380.05a5.59,5.59,0,0,0,1.12,3.34,10.19,10.19,0,0,0,3,2.75,19.27,19.27,0,0,0,4.24,1.93,15.45,15.45,0,0,0,4.83.75ZM393.28,513A18.78,18.78,0,0,0,383,515.9a17.09,17.09,0,0,0-6.62,7.66h35.08V523a5.83,5.83,0,0,0-.89-2.52,10.74,10.74,0,0,0-3-3.27,21.29,21.29,0,0,0-5.64-2.9A25.37,25.37,0,0,0,393.28,513Z"/><path class="cls-4" d="M467.89,515.68a11.11,11.11,0,0,0-5.72,1.26,14.9,14.9,0,0,0-4.76,3.87,18.87,18.87,0,0,0-3.19,5.87,21.38,21.38,0,0,0-1.19,7.13V546.6a13.94,13.94,0,0,1-4.16,10.25A13.76,13.76,0,0,1,438.76,561v-27.2a34.82,34.82,0,0,1,2.3-12.63,34.24,34.24,0,0,1,6.25-10.4,28.42,28.42,0,0,1,9.29-7A26.5,26.5,0,0,1,468,501.26h14.42a13.87,13.87,0,0,1-1.12,5.58,14.42,14.42,0,0,1-3.12,4.6,14.65,14.65,0,0,1-4.61,3.13,14,14,0,0,1-5.57,1.11Z"/></g></svg>